<svg viewBox="0 0 900 480" xmlns="http://www.w3.org/2000/svg" font-family="Helvetica, Arial, sans-serif">
  <defs>
    <marker id="ah2" markerWidth="10" markerHeight="10" refX="6" refY="3" orient="auto" markerUnits="strokeWidth">
      <path d="M0,0 L6,3 L0,6 Z" fill="#888" />
    </marker>
  </defs>
  <rect width="900" height="480" fill="#fafafa"/>
  <text x="450" y="36" text-anchor="middle" font-size="24" font-weight="700" fill="#111">MemoryBus - Single Access Facade</text>

  <!-- Consumers -->
  <rect x="340" y="60" width="220" height="50" rx="8" fill="#1f2937"/>
  <text x="450" y="91" text-anchor="middle" font-size="14" fill="#fff" font-weight="600">ExecuteAgentService</text>

  <line x1="450" y1="110" x2="450" y2="150" stroke="#888" stroke-width="2" marker-end="url(#ah2)"/>

  <!-- Bus -->
  <rect x="280" y="150" width="340" height="70" rx="10" fill="#fef9c3" stroke="#ca8a04" stroke-width="2"/>
  <text x="450" y="190" text-anchor="middle" font-size="18" font-weight="700" fill="#1a1a1a">MemoryBus</text>
  <text x="450" y="210" text-anchor="middle" font-size="12" fill="#555">load() · updateWorking() · persistEpisode() · proposeSemantic() · proposeProcedure()</text>

  <!-- 4 layers fanning out -->
  <line x1="350" y1="220" x2="160" y2="290" stroke="#888" stroke-width="2" marker-end="url(#ah2)"/>
  <line x1="410" y1="220" x2="330" y2="290" stroke="#888" stroke-width="2" marker-end="url(#ah2)"/>
  <line x1="490" y1="220" x2="570" y2="290" stroke="#888" stroke-width="2" marker-end="url(#ah2)"/>
  <line x1="550" y1="220" x2="740" y2="290" stroke="#888" stroke-width="2" marker-end="url(#ah2)"/>

  <rect x="80" y="290" width="160" height="60" rx="8" fill="#eef6ff" stroke="#3b82f6"/>
  <text x="160" y="315" text-anchor="middle" font-size="13" font-weight="700">WorkingMemory</text>
  <text x="160" y="333" text-anchor="middle" font-size="11" fill="#555">Cache facade</text>

  <rect x="250" y="290" width="160" height="60" rx="8" fill="#fff7ed" stroke="#f97316"/>
  <text x="330" y="315" text-anchor="middle" font-size="13" font-weight="700">EpisodicMemory</text>
  <text x="330" y="333" text-anchor="middle" font-size="11" fill="#555">HTTP → Python API</text>

  <rect x="490" y="290" width="160" height="60" rx="8" fill="#f0fdf4" stroke="#16a34a"/>
  <text x="570" y="315" text-anchor="middle" font-size="13" font-weight="700">SemanticMemory</text>
  <text x="570" y="333" text-anchor="middle" font-size="11" fill="#555">DB: agent_semantic_memory</text>

  <rect x="660" y="290" width="160" height="60" rx="8" fill="#fdf4ff" stroke="#a21caf"/>
  <text x="740" y="315" text-anchor="middle" font-size="13" font-weight="700">ProceduralMemory</text>
  <text x="740" y="333" text-anchor="middle" font-size="11" fill="#555">DB: agent_procedures</text>

  <!-- side note: telemetry -->
  <line x1="450" y1="220" x2="450" y2="390" stroke="#888" stroke-width="2" stroke-dasharray="4,3" marker-end="url(#ah2)"/>
  <rect x="350" y="390" width="200" height="55" rx="8" fill="#f3f4f6" stroke="#6b7280"/>
  <text x="450" y="412" text-anchor="middle" font-size="13" font-weight="700">PolicyObservationRepository</text>
  <text x="450" y="430" text-anchor="middle" font-size="11" fill="#555">telemetry, no candidate/active pipeline</text>

  <text x="450" y="470" text-anchor="middle" font-size="12" fill="#777" font-style="italic">
    No consumer accesses a layer directly, everything goes through the bus.
  </text>
</svg>
